# xmcd CD database file generated by OrangeCD 6.4
#
# Track frame offsets:
#	150
#	12773
#	25378
#	36923
#	50314
#	65094
#	80327
#	92395
#	103214
#	113765
#	132927
#	147375
#	167327
#	178206
#	195491
#	212381
#	230392
#	244662
#	258470
#	275002
#
# Disc length: 3877 seconds
#
# Revision: 0
# Processed by: cddbd v1.5.2PL0 Copyright (c) Steve Scherf et al.
# Submitted via: OrangeCD 6.4
#
DISCID=120f2314
DTITLE=Jessi Colter - I'm Jessi Colter/Jessi/Diamond In The Rough
DYEAR=2011
DGENRE=Progressive Country
TTITLE0=Is There Any Way (You'd Stay Forever)
TTITLE1=I Hear A Song
TTITLE2=Come On In
TTITLE3=You Ain't Never Been Loved (Like I'm Gonna Love You)
TTITLE4=Love's The Only Chain
TTITLE5=I'm Not Lisa
TTITLE6=For The First Time
TTITLE7=Who Walks Thru Your Memory (Billy Jo)
TTITLE8=What Happened To Blue Eyes
TTITLE9=Storms Never Last
TTITLE10=The Hand That Rocks The Cradle
TTITLE11=One Woman Man
TTITLE12=It's Morning (And I Still Love You)
TTITLE13=Rounder
TTITLE14=Here I Am
TTITLE15=Without You
TTITLE16=Darlin' Its' Yours
TTITLE17=Would You Walk With Me (To The Lilies)
TTITLE18=All My Life, I've Been Your Lady
TTITLE19=I See Your Face (In The Morning's Window)
EXTD=
EXTT0=
EXTT1=
EXTT2=
EXTT3=
EXTT4=
EXTT5=
EXTT6=
EXTT7=
EXTT8=
EXTT9=
EXTT10=
EXTT11=
EXTT12=
EXTT13=
EXTT14=
EXTT15=
EXTT16=
EXTT17=
EXTT18=
EXTT19=
PLAYORDER=
